<svg width="110" height="110" viewBox="0 0 110 110" fill="none" xmlns="http://www.w3.org/2000/svg">
<path d="M0 24C0 10.7452 10.7452 0 24 0H102C106.418 0 110 3.58172 110 8V86C110 99.2548 99.2548 110 86 110H8C3.58172 110 0 106.418 0 102V24Z" fill="#252827"/>
<path d="M61.5 52.5L36.5 52.5C25.4543 52.5 16.5 43.5457 16.5 32.5C16.5 21.4543 25.4543 12.5 36.5 12.5L61.5 12.5L61.5 52.5Z" fill="#38E18C"/>
<rect x="96.5" y="52.5" width="30" height="40" transform="rotate(-180 96.5 52.5)" fill="#8759F3"/>
<path d="M48.5 57.5H73.5C84.5457 57.5 93.5 66.4543 93.5 77.5C93.5 88.5457 84.5457 97.5 73.5 97.5H48.5V57.5Z" fill="#499AEE"/>
<rect x="13.5" y="57.5" width="30" height="40" fill="#E23B3B"/>
</svg>
